<svg width="100%" height="100%" preserveAspectRatio="none" viewBox="0 0 24 24" fill="none" xmlns="http://www.w3.org/2000/svg">
<path fill-rule="evenodd" clip-rule="evenodd" d="M4 7.99973C4 6.35163 5.88153 5.41087 7.2 6.39972L12 9.99972V7.99973C12 6.35163 13.8815 5.41087 15.2 6.39972L20.5333 10.3997C21.6 11.1997 21.6 12.7997 20.5333 13.5997L15.2 17.5997C13.8815 18.5886 12 17.6478 12 15.9997V13.9997L7.2 17.5997C5.88153 18.5886 4 17.6478 4 15.9997L4 7.99973ZM11.3333 11.9997L6 7.99973L6 15.9997L11.3333 11.9997ZM19.3333 11.9997L14 7.99972L14 15.9997L19.3333 11.9997Z" fill="currentColor"/>
</svg>
