<svg width="100%" height="100%" viewBox="0 0 119 40" fill="none" xmlns="http://www.w3.org/2000/svg">
<path d="M9.08815 30.6764L9.00383 17.7967L8.91808 5.41853C9.02098 3.05181 10.5616 1.46399 12.8626 1.46399C16.8986 1.46399 19.4368 4.87402 21.1433 8.37122H21.4177L21.0704 0.153435H0V0.427837C1.07331 2.03281 1.87223 5.00121 1.87223 9.43167V22.7902C1.87223 27.2307 1.07331 30.1948 0.00571672 31.794V32.0713H22.5439L22.7297 23.0932H22.4438C20.0271 26.5047 13.9316 30.1391 9.08815 30.6764Z" fill="#072041"/>
<path d="M45.5305 9.13042H37.8558V9.41626C38.4847 10.178 39.2021 11.7301 39.2021 14.1526C39.2021 15.8561 38.8434 17.5154 37.9459 19.3548L35.7592 23.7638L31.7575 13.9282C31.1744 12.4475 30.9958 11.4614 30.9958 10.6982C30.9958 9.84072 31.2201 9.49486 31.3545 9.41197V9.13042H21.6789V9.40625C22.0477 9.69209 22.565 10.3352 23.251 11.58C23.0108 11.7575 22.7597 11.9198 22.4993 12.066C22.1392 12.2728 21.7261 12.3692 21.3116 12.3432C20.9313 12.309 20.5529 12.2546 20.1783 12.1803C19.6791 12.0784 19.1865 11.9462 18.7034 11.7844C18.044 11.564 17.3962 11.3102 16.7626 11.0241C16.0365 10.7011 15.2038 10.2838 14.2644 9.77212C13.4069 10.4324 12.5379 11.1289 11.6575 11.8616C10.7772 12.5943 9.90584 13.3289 9.04356 14.0654C9.78197 14.5151 10.4489 14.89 11.0444 15.1901C11.5754 15.4645 12.1207 15.7102 12.678 15.9262C13.1341 16.1048 13.6033 16.2481 14.0814 16.3549C14.5 16.4454 14.9239 16.5089 15.3505 16.545C15.7874 16.5714 16.225 16.5087 16.6368 16.3606C17.2423 16.1364 17.8182 15.8394 18.3518 15.476C19.0273 15.0415 19.842 14.447 20.7957 13.6924C21.5113 13.1207 22.3416 12.4361 23.2868 11.6386C23.9857 12.9528 24.6149 14.3029 25.1719 15.6832L29.9925 27.3725C30.0268 27.4554 30.0668 27.534 30.104 27.614L30.3769 28.2757C30.8877 29.5152 31.755 30.575 32.869 31.3208C33.983 32.0666 35.2933 32.4647 36.6339 32.4646C36.2594 29.3605 36.8325 25.7932 37.9387 22.9749C38.1488 22.4575 38.3775 21.9459 38.6276 21.4442L40.5112 17.6569C43.1624 12.3189 44.5916 10.5882 45.5348 9.42197L45.5305 9.13042Z" fill="#072041"/>
<path d="M110.904 9.13103V9.41687C111.487 10.1786 112.295 11.8651 112.295 14.2418C112.295 15.7224 111.892 17.516 110.994 19.3554L108.629 24.1217L104.5 13.9288C103.917 12.4482 103.738 11.462 103.738 10.6988C103.738 9.84133 103.963 9.50548 104.097 9.41258V9.12674H94.4256V9.41258C94.576 9.53387 94.7139 9.66984 94.8372 9.81847L94.8701 9.85705L94.9144 9.91279L94.9502 9.95424L95.0016 10.0214L95.0302 10.0571C95.0559 10.0914 95.0816 10.1257 95.1074 10.1629L95.1402 10.2072L95.196 10.2844L95.2303 10.3344C95.2503 10.363 95.2717 10.393 95.2917 10.4244L95.3217 10.4659L95.4104 10.6002C95.4204 10.6174 95.4304 10.6345 95.4418 10.6502L95.5075 10.7531L95.5433 10.8117L95.6133 10.9247L95.6433 10.9747L95.7433 11.1419L95.7734 11.1933C95.7977 11.2376 95.8234 11.2819 95.8491 11.3263L95.8877 11.3934L95.9663 11.5363L95.9992 11.5949L96.1092 11.7965C96.1178 11.815 96.1278 11.8322 96.1364 11.8508C96.1664 11.9051 96.195 11.9594 96.225 12.0165L96.265 12.0937C96.2936 12.148 96.3222 12.2038 96.3507 12.2609L96.3865 12.3281C96.4251 12.4067 96.4665 12.4853 96.5065 12.5682L96.5337 12.6225L96.6323 12.824L96.6752 12.9126C96.7066 12.9755 96.7366 13.0398 96.7681 13.1042C96.7809 13.1327 96.7952 13.1599 96.8081 13.1885L96.9381 13.4657C96.9467 13.4829 96.9553 13.5015 96.9624 13.5186L97.0739 13.7601L97.1211 13.863L97.2197 14.0831L97.2626 14.1789L97.4055 14.5005C97.4055 14.5133 97.4155 14.5248 97.4212 14.5376C97.4641 14.6348 97.507 14.7348 97.5513 14.8377C97.567 14.8749 97.5841 14.9135 97.5998 14.9521C97.6356 15.0335 97.6699 15.1164 97.7056 15.2008L97.7542 15.3137L97.8971 15.6695V15.681L103.597 29.534C103.892 30.248 104.432 30.8339 105.119 31.1876L104.107 33.2313L103.964 33.3128C102.96 33.89 101.822 34.1904 100.664 34.1831C96.4865 34.1831 93.3237 30.9803 93.3237 26.8314V0L84.6072 4.04458V4.32184C85.3432 4.89351 86.6338 6.82005 86.5909 11.1433L86.5709 12.2695C86.4841 12.2852 86.3955 12.2881 86.3079 12.2781C85.9498 12.2465 85.5938 12.194 85.2417 12.1209C84.7725 12.0222 84.3103 11.8923 83.8583 11.7321C83.2383 11.5151 82.6304 11.2646 82.0375 10.9818C81.3563 10.6636 80.575 10.2506 79.6937 9.74272C78.8862 10.4073 75.2632 13.3285 74.45 14.0603C75.1417 14.5062 75.7653 14.8778 76.3208 15.175C76.818 15.4455 77.33 15.6878 77.8543 15.9011C78.2812 16.0768 78.722 16.2169 79.172 16.3198C79.5646 16.4084 79.9629 16.47 80.3639 16.5042C80.7751 16.5268 81.1863 16.4615 81.5702 16.3127C82.1452 16.0838 82.6892 15.7838 83.1894 15.4194C83.8268 14.9821 84.5957 14.3837 85.4961 13.6244C85.8267 13.3462 86.1826 13.0394 86.5637 12.704L86.4122 23.4014C86.3966 24.5746 86.6121 25.7395 87.0467 26.8294C87.4812 27.9193 88.1262 28.9129 88.9448 29.7535C89.7634 30.5941 90.7395 31.2653 91.8175 31.7286C92.8955 32.1919 94.0542 32.4383 95.2274 32.4538H95.8491L92.0818 38.5993C92.4822 38.8613 92.9039 39.0893 93.3423 39.281L93.3752 39.2924C95.3748 40.1568 97.6275 40.232 99.6803 39.5028C101.733 38.7737 103.434 37.2943 104.44 35.3622L106.092 32.4895L106.611 31.552L113.542 17.6475C115.695 13.3414 117.355 10.8032 118.566 9.41258V9.12674L110.904 9.13103Z" fill="#072041"/>
<path d="M74.4162 26.8153V8.76766L65.6982 12.8122V13.0866C66.4371 13.6497 67.7691 15.4305 67.6819 19.7566C67.68 19.8614 67.668 19.9657 67.6462 20.0682C66.813 23.8326 62.3968 26.5738 58.7567 26.5738C53.8675 26.5738 49.9644 23.2996 49.9644 18.3203C49.9644 18.0973 49.9644 17.8744 49.9815 17.6514C49.9868 17.5786 50.019 17.5103 50.0718 17.4599C50.1246 17.4094 50.1943 17.3804 50.2673 17.3785H64.0418C64.0418 11.3759 59.3769 8.76766 54.9822 8.76766C48.0521 8.76766 43.5402 13.7598 43.5402 20.6227C43.5402 27.0683 48.4952 31.9632 54.9379 32.1147V32.1219H55.2452C60.8747 32.1219 66.1641 27.8 67.4161 22.7322C67.4144 22.72 67.4152 22.7076 67.4183 22.6957C67.4215 22.6838 67.427 22.6727 67.4345 22.6629C67.4419 22.6531 67.4513 22.645 67.462 22.6389C67.4727 22.6328 67.4845 22.6288 67.4967 22.6273C67.5089 22.6258 67.5213 22.6267 67.5331 22.63C67.545 22.6334 67.556 22.639 67.5657 22.6466C67.5754 22.6543 67.5834 22.6637 67.5894 22.6745C67.5953 22.6852 67.5991 22.6971 67.6004 22.7093C67.6019 22.7169 67.6019 22.7246 67.6004 22.7322V23.4239C67.5347 28.4046 71.4449 32.4492 76.4256 32.4492H76.9287C76.1281 31.7471 75.4889 30.88 75.0552 29.9075C74.6215 28.935 74.4035 27.8801 74.4162 26.8153ZM55.6211 9.62945C57.6062 9.62945 58.5666 10.8357 58.5666 12.2792C58.5666 15.995 54.422 16.2265 52.4354 16.2265H50.1344C50.5403 12.2106 52.9842 9.62945 55.6211 9.62945Z" fill="#072041"/>
</svg>
